<?xml version="1.0" encoding="UTF-8" standalone="no"?>
<svg
   id="flag-icons-gb"
   viewBox="0 0 20 15"
   version="1.1"
   sodipodi:docname="gb.svg"
   width="20"
   height="15"
   inkscape:version="1.1.1 (c3084ef, 2021-09-22)"
   xmlns:inkscape="http://www.inkscape.org/namespaces/inkscape"
   xmlns:sodipodi="http://sodipodi.sourceforge.net/DTD/sodipodi-0.dtd"
   xmlns="http://www.w3.org/2000/svg"
   xmlns:svg="http://www.w3.org/2000/svg">
  <defs
     id="defs845" />
  <sodipodi:namedview
     id="namedview843"
     pagecolor="#ffffff"
     bordercolor="#666666"
     borderopacity="1.0"
     inkscape:pageshadow="2"
     inkscape:pageopacity="0.0"
     inkscape:pagecheckerboard="0"
     showgrid="false"
     fit-margin-top="0"
     fit-margin-left="0"
     fit-margin-right="0"
     fit-margin-bottom="0"
     inkscape:zoom="1.8479502"
     inkscape:cx="-19.210475"
     inkscape:cy="73.865628"
     inkscape:window-width="1084"
     inkscape:window-height="621"
     inkscape:window-x="0"
     inkscape:window-y="25"
     inkscape:window-maximized="0"
     inkscape:current-layer="flag-icons-gb" />
  <path
     fill="#012169"
     d="M 0,0 H 20 V 15 H 0 Z"
     id="path832"
     style="stroke-width:0.03125" />
  <path
     fill="#ffffff"
     d="M 2.34375,0 9.96875,5.65625 17.5625,0 H 20 v 1.9375 l -7.5,5.59375 7.5,5.5625 V 15 H 17.5 L 10,9.40625 2.53125,15 H 0 V 13.125 L 7.46875,7.5625 0,2 V 0 Z"
     id="path834"
     style="stroke-width:0.03125" />
  <path
     fill="#c8102e"
     d="M 13.25,8.78125 20,13.75 V 15 L 11.53125,8.78125 Z M 7.5,9.40625 7.6875,10.5 l -6,4.5 H 0 Z M 20,0 v 0.09375 l -7.78125,5.875 0.0625,-1.375 L 18.4375,0 Z M 0,0 7.46875,5.5 h -1.875 L 0,1.3125 Z"
     id="path836"
     style="stroke-width:0.03125" />
  <path
     fill="#ffffff"
     d="m 7.53125,0 v 15 h 5 V 0 Z M 0,5 v 5 H 20 V 5 Z"
     id="path838"
     style="stroke-width:0.03125" />
  <path
     fill="#c8102e"
     d="m 0,6.03125 v 3 h 20 v -3 z M 8.53125,0 v 15 h 3 V 0 Z"
     id="path840"
     style="stroke-width:0.03125" />
</svg>
