<?xml version="1.0" encoding="UTF-8" standalone="no"?>
<svg
   version="1.1"
   id="svg3686"
   sodipodi:docname="Art.svg"
   inkscape:version="1.4 (e7c3feb1, 2024-10-09)"
   inkscape:export-filename="/Users/tijmen/Code/godot/rowingboat/assets/tiles.png"
   inkscape:export-xdpi="192"
   inkscape:export-ydpi="192"
   width="30.014576mm"
   height="8.3622484mm"
   xml:space="preserve"
   xmlns:inkscape="http://www.inkscape.org/namespaces/inkscape"
   xmlns:sodipodi="http://sodipodi.sourceforge.net/DTD/sodipodi-0.dtd"
   xmlns="http://www.w3.org/2000/svg"
   xmlns:svg="http://www.w3.org/2000/svg"><sodipodi:namedview
     id="namedview3688"
     pagecolor="#ffffff"
     bordercolor="#666666"
     borderopacity="1.0"
     inkscape:pageshadow="2"
     inkscape:pageopacity="0.0"
     inkscape:pagecheckerboard="false"
     showgrid="false"
     inkscape:zoom="0.99888413"
     inkscape:cx="932.54059"
     inkscape:cy="1676.8712"
     inkscape:window-width="1360"
     inkscape:window-height="831"
     inkscape:window-x="46"
     inkscape:window-y="34"
     inkscape:window-maximized="0"
     inkscape:snap-global="true"
     showguides="false"
     inkscape:snap-others="false"
     inkscape:snap-bbox="true"
     inkscape:bbox-nodes="true"
     inkscape:lockguides="false"
     units="mm"
     inkscape:document-units="mm"
     inkscape:showpageshadow="2"
     inkscape:deskcolor="#d1d1d1"
     inkscape:current-layer="g1619"><inkscape:grid
       type="xygrid"
       id="grid2171"
       dotted="true"
       spacingx="64"
       spacingy="64"
       originx="-848.8186"
       originy="-659.7713"
       units="mm"
       visible="false" /><inkscape:page
       x="0"
       y="0"
       width="113.44092"
       height="31.605349"
       id="page2"
       margin="0"
       bleed="0" /></sodipodi:namedview><defs
     id="defs1064"><clipPath
       clipPathUnits="userSpaceOnUse"
       id="clipPath33544"><path
         d="M 46.981,49.175 H 551.994 V 792.152 H 46.981 Z"
         transform="translate(-505.53661,-81.276827)"
         id="path33544" /></clipPath><clipPath
       clipPathUnits="userSpaceOnUse"
       id="clipPath9112"><path
         d="M 46.981,52.188 H 551.994 V 792.152 H 46.981 Z"
         transform="translate(-327.33903,-546.36622)"
         id="path9112" /></clipPath><clipPath
       clipPathUnits="userSpaceOnUse"
       id="clipPath9114"><path
         d="M 46.981,52.188 H 551.994 V 792.152 H 46.981 Z"
         transform="translate(-346.38423,-530.51771)"
         id="path9114" /></clipPath><clipPath
       clipPathUnits="userSpaceOnUse"
       id="clipPath9116"><path
         d="M 46.981,52.188 H 551.994 V 792.152 H 46.981 Z"
         transform="translate(-349.46793,-530.74852)"
         id="path9116" /></clipPath></defs><g
     inkscape:groupmode="layer"
     id="layer1"
     inkscape:label="background"
     style="display:none;opacity:1"
     transform="translate(-848.8186,-659.7713)"><rect
       style="display:inline;fill:#4a697c;fill-opacity:1;stroke:#ffffff;stroke-width:0.899528;stroke-linecap:round;stroke-linejoin:round;stroke-dasharray:2.69858, 2.69858;stroke-dashoffset:0;stroke-opacity:1"
       id="rect135"
       width="218.36766"
       height="281.89279"
       x="697.52643"
       y="603.26508" /></g><g
     inkscape:groupmode="layer"
     id="layer2"
     inkscape:label="art"
     style="display:inline"
     transform="translate(-848.8186,-661.00648)"><g
       id="g227"
       inkscape:export-filename="../src/assets/flags/nl.svg"
       inkscape:export-xdpi="73.07"
       inkscape:export-ydpi="73.07"
       transform="translate(124,-72)"><path
         id="path9111"
         d="m 0,0 c 6.718,1.498 12.554,2.523 16.39,3.039 l 2.655,-18.887 c -2.053,-0.15 -3.983,-0.284 -5.834,-0.399 l -0.192,-0.012 c -8.159,-0.495 -23.042,-0.833 -23.657,-0.449 -0.367,0.231 -5.581,9.035 -5.581,9.035 l -0.051,3.531 C -10.662,-2.513 -5.083,-1.122 0,0"
         style="fill:#89817e;fill-opacity:1;fill-rule:nonzero;stroke:none"
         transform="matrix(1.3333333,0,0,-1.3333333,804.6933,739.8046)"
         clip-path="url(#clipPath9112)"
         inkscape:transform-center-x="11.195885"
         inkscape:transform-center-y="3.4251354" /><path
         id="path9113"
         d="m 0,0 -2.656,18.888 c 1.249,0.168 2.282,0.282 3.069,0.34 L 3.084,0.231 Z"
         style="fill:#ffffff;fill-opacity:1;fill-rule:nonzero;stroke:none"
         transform="matrix(1.3333333,0,0,-1.3333333,830.0869,760.93594)"
         clip-path="url(#clipPath9114)"
         inkscape:transform-center-x="-12.633048"
         inkscape:transform-center-y="2.5145302" /><path
         id="path9115"
         d="m 0,0 -2.67,18.998 c 0.916,0.068 1.495,0.062 1.674,-0.019 C 0.341,18.88 1.205,16.414 1.779,11.639 2.352,6.864 3.633,0.031 1.177,0.091 Z"
         style="fill:#dc0d15;fill-opacity:1;fill-rule:nonzero;stroke:none"
         transform="matrix(1.3333333,0,0,-1.3333333,834.1985,760.6282)"
         clip-path="url(#clipPath9116)"
         inkscape:transform-center-x="-16.430945"
         inkscape:transform-center-y="2.3289446" /><g
         id="g221"
         transform="translate(5.7387333,71.875204)"
         style="display:inline;stroke-width:1.00157;stroke-dasharray:none"><path
           id="path219"
           d="m 777.25567,672.50394 v 4.50552 l -8.82495,0.0971 v -4.69964 z"
           style="fill:#000000;fill-opacity:1;fill-rule:evenodd;stroke:#13110c;stroke-width:1.00157;stroke-linecap:butt;stroke-linejoin:miter;stroke-miterlimit:3.864;stroke-dasharray:none;stroke-opacity:1"
           sodipodi:nodetypes="ccccc" /><path
           id="path220"
           d="m 0,0 c 11.416,2.546 20.279,3.723 21.087,3.353 1.336,-0.096 2.199,-2.558 2.77,-7.322 0.57,-4.766 1.848,-11.583 -0.6,-11.525 -3.717,-0.287 -7.005,-0.526 -10.074,-0.717 l -0.19,-0.012 c -8.143,-0.494 -22.994,-0.831 -23.606,-0.449 -0.368,0.23 -5.569,9.017 -5.569,9.017 L -16.20041,-6.3579239 -16.232,-4.132 C -10.637,-2.507 -5.071,-1.12 0,0 Z"
           style="fill:none;fill-opacity:1;stroke:#000000;stroke-width:1.84252;stroke-linecap:butt;stroke-linejoin:miter;stroke-miterlimit:3.864;stroke-dasharray:none;stroke-dashoffset:0;stroke-opacity:1"
           transform="matrix(1.3333333,0,0,-1.3333333,798.35364,666.9333)"
           clip-path="url(#clipPath33544)"
           sodipodi:nodetypes="ccccccccccc" /></g><g
         id="g226"
         transform="matrix(0.98884363,0,0,1,8.0863447,74)"
         inkscape:export-filename="../src/assets/flags/nl.svg"
         inkscape:export-xdpi="54.062046"
         inkscape:export-ydpi="54.062046"
         style="display:inline"><path
           fill="#21468b"
           d="m 724.81863,659.07895 h 42.04386 v 31.53289 h -42.04386 z"
           id="path224"
           style="stroke-width:0.0656934" /><path
           fill="#ffffff"
           d="m 724.81863,659.07895 h 42.04386 v 21.02193 h -42.04386 z"
           id="path225"
           style="stroke-width:0.0656934" /><path
           fill="#ae1c28"
           d="m 724.81863,659.07895 h 42.04386 v 10.51096 h -42.04386 z"
           id="path226"
           style="stroke-width:0.0656934" /></g></g></g></svg>
