<?xml version="1.0" encoding="UTF-8" standalone="no"?>
<svg
   version="1.1"
   id="svg3686"
   width="30.014576mm"
   height="8.3622484mm"
   xml:space="preserve"
   xmlns="http://www.w3.org/2000/svg"
   xmlns:svg="http://www.w3.org/2000/svg"><defs
     id="defs1064"><clipPath
       clipPathUnits="userSpaceOnUse"
       id="clipPath33544"><path
         d="M 46.981,49.175 H 551.994 V 792.152 H 46.981 Z"
         transform="translate(-505.53661,-81.276827)"
         id="path33544" /></clipPath><clipPath
       clipPathUnits="userSpaceOnUse"
       id="clipPath7905"><path
         d="M 46.981,52.188 H 551.994 V 792.152 H 46.981 Z"
         transform="translate(-525.49421,-78.276527)"
         id="path7905" /></clipPath></defs><g
     id="layer1"
     style="display:none;opacity:1"
     transform="translate(-724.8186,-808.10925)"><rect
       style="display:inline;fill:#4a697c;fill-opacity:1;stroke:#ffffff;stroke-width:0.899528;stroke-linecap:round;stroke-linejoin:round;stroke-dasharray:2.69858, 2.69858;stroke-dashoffset:0;stroke-opacity:1"
       id="rect135"
       width="218.36766"
       height="281.89279"
       x="697.52643"
       y="603.26508" /></g><g
     id="layer2"
     style="display:inline"
     transform="translate(-724.8186,-809.34443)"><g
       id="g153"><g
         id="g131"
         transform="translate(0,76.33791)"><g
           id="g33"
           transform="translate(5.7387333,71.875204)"
           style="display:inline;stroke-width:1.00157;stroke-dasharray:none"><path
             id="path33"
             d="m 0,0 c 11.416,2.546 20.279,3.723 21.087,3.353 1.336,-0.096 2.199,-2.558 2.77,-7.322 0.57,-4.766 1.848,-11.583 -0.6,-11.525 -3.717,-0.287 -7.005,-0.526 -10.074,-0.717 l -0.19,-0.012 c -8.143,-0.494 -22.994,-0.831 -23.606,-0.449 -0.368,0.23 -5.569,9.017 -5.569,9.017 L -16.20041,-6.3579239 -16.232,-4.132 C -10.637,-2.507 -5.071,-1.12 0,0 Z"
             style="fill:#ffffff;fill-opacity:1;stroke:#000000;stroke-width:1.84252;stroke-linecap:butt;stroke-linejoin:miter;stroke-miterlimit:3.864;stroke-dasharray:none;stroke-dashoffset:0;stroke-opacity:1"
             transform="matrix(1.3333333,0,0,-1.3333333,798.35364,666.9333)"
             clip-path="url(#clipPath33544)" /><path
             id="path32"
             d="m 777.25567,672.50394 v 4.50552 l -8.82495,0.0971 v -4.69964 z"
             style="fill:#000000;fill-opacity:1;fill-rule:evenodd;stroke:#13110c;stroke-width:1.00157;stroke-linecap:butt;stroke-linejoin:miter;stroke-miterlimit:3.864;stroke-dasharray:none;stroke-opacity:1" /><path
             id="path133"
             d="m 0,0 c 11.416,2.546 20.279,3.723 21.087,3.353 1.336,-0.096 2.199,-2.558 2.77,-7.322 0.57,-4.766 1.848,-11.583 -0.6,-11.525 -3.717,-0.287 -7.005,-0.526 -10.074,-0.717 l -0.19,-0.012 c -8.143,-0.494 -22.994,-0.831 -23.606,-0.449 -0.368,0.23 -5.569,9.017 -5.569,9.017 L -16.20041,-6.3579239 -16.232,-4.132 C -10.637,-2.507 -5.071,-1.12 0,0 Z"
             style="fill:#ffffff;fill-opacity:1;stroke:#000000;stroke-width:1.84252;stroke-linecap:butt;stroke-linejoin:miter;stroke-miterlimit:3.864;stroke-dasharray:none;stroke-dashoffset:0;stroke-opacity:1"
             transform="matrix(1.3333333,0,0,-1.3333333,798.35364,666.9333)"
             clip-path="url(#clipPath33544)" /></g><g
           id="g130"
           transform="matrix(0.98884363,0,0,1,8.0863447,74)"
           style="display:inline"><path
             fill="#21468b"
             d="m 724.81863,659.07895 h 42.04386 v 31.53289 h -42.04386 z"
             id="path125"
             style="stroke-width:0.0656934" /><path
             fill="#ffffff"
             d="m 724.81863,659.07895 h 42.04386 v 21.02193 h -42.04386 z"
             id="path129"
             style="stroke-width:0.0656934" /><path
             fill="#ae1c28"
             d="m 724.81863,659.07895 h 42.04386 v 10.51096 h -42.04386 z"
             id="path130"
             style="stroke-width:0.0656934" /></g></g><path
         id="path7904"
         d="M 0,0 6.908,0.97 C 7.015,0.083 7.146,-0.876 7.272,-1.846 l -6.88,-0.967 1.137,-8.09 -2.84,-0.2 -1.108,7.895 -28.125,-3.953 c -0.567,0.938 -1.13,1.873 -1.59,2.645 l 29.321,4.12 -1.114,7.924 c 1.017,0.163 1.957,0.306 2.807,0.425 z"
         style="fill:#dd1615;fill-opacity:1;fill-rule:nonzero;stroke:none"
         transform="matrix(1.3333333,0,0,-1.3333333,827.74992,822.43842)"
         clip-path="url(#clipPath7905)" /><g
         id="g152"
         transform="translate(0,76.33791)"
         style="fill:none"><g
           id="g138"
           transform="translate(5.7387333,71.875204)"
           style="display:inline;fill:none;stroke-width:1.00157;stroke-dasharray:none"><path
             id="path135"
             d="m 0,0 c 11.416,2.546 20.279,3.723 21.087,3.353 1.336,-0.096 2.199,-2.558 2.77,-7.322 0.57,-4.766 1.848,-11.583 -0.6,-11.525 -3.717,-0.287 -7.005,-0.526 -10.074,-0.717 l -0.19,-0.012 c -8.143,-0.494 -22.994,-0.831 -23.606,-0.449 -0.368,0.23 -5.569,9.017 -5.569,9.017 L -16.20041,-6.3579239 -16.232,-4.132 C -10.637,-2.507 -5.071,-1.12 0,0 Z"
             style="fill:none;fill-opacity:1;stroke:#000000;stroke-width:1.84252;stroke-linecap:butt;stroke-linejoin:miter;stroke-miterlimit:3.864;stroke-dasharray:none;stroke-dashoffset:0;stroke-opacity:1"
             transform="matrix(1.3333333,0,0,-1.3333333,798.35364,666.9333)"
             clip-path="url(#clipPath33544)" /><path
             id="path137"
             d="m 777.25567,672.50394 v 4.50552 l -8.82495,0.0971 v -4.69964 z"
             style="fill:none;fill-opacity:1;fill-rule:evenodd;stroke:#13110c;stroke-width:1.00157;stroke-linecap:butt;stroke-linejoin:miter;stroke-miterlimit:3.864;stroke-dasharray:none;stroke-opacity:1" /><path
             id="path138"
             d="m 0,0 c 11.416,2.546 20.279,3.723 21.087,3.353 1.336,-0.096 2.199,-2.558 2.77,-7.322 0.57,-4.766 1.848,-11.583 -0.6,-11.525 -3.717,-0.287 -7.005,-0.526 -10.074,-0.717 l -0.19,-0.012 c -8.143,-0.494 -22.994,-0.831 -23.606,-0.449 -0.368,0.23 -5.569,9.017 -5.569,9.017 L -16.20041,-6.3579239 -16.232,-4.132 C -10.637,-2.507 -5.071,-1.12 0,0 Z"
             style="fill:none;fill-opacity:1;stroke:#000000;stroke-width:1.84252;stroke-linecap:butt;stroke-linejoin:miter;stroke-miterlimit:3.864;stroke-dasharray:none;stroke-dashoffset:0;stroke-opacity:1"
             transform="matrix(1.3333333,0,0,-1.3333333,798.35364,666.9333)"
             clip-path="url(#clipPath33544)" /></g><g
           id="g151"
           transform="matrix(0.98884363,0,0,1,8.0863447,74)"
           style="display:inline;fill:none"><path
             fill="#21468b"
             d="m 724.81863,659.07895 h 42.04386 v 31.53289 h -42.04386 z"
             id="path139"
             style="fill:none;stroke-width:0.0656934" /><path
             fill="#ffffff"
             d="m 724.81863,659.07895 h 42.04386 v 21.02193 h -42.04386 z"
             id="path150"
             style="fill:none;stroke-width:0.0656934" /><path
             fill="#ae1c28"
             d="m 724.81863,659.07895 h 42.04386 v 10.51096 h -42.04386 z"
             id="path151"
             style="fill:none;stroke-width:0.0656934" /></g></g></g></g></svg>
