<?xml version="1.0" encoding="UTF-8" standalone="no"?>
<svg
   version="1.1"
   id="svg3686"
   width="29.248167mm"
   height="8.3430634mm"
   xml:space="preserve"
   xmlns="http://www.w3.org/2000/svg"
   xmlns:svg="http://www.w3.org/2000/svg"><defs
     id="defs1064"><clipPath
       clipPathUnits="userSpaceOnUse"
       id="clipPath33538"><path
         d="M 46.981,49.175 H 551.994 V 792.152 H 46.981 Z"
         transform="translate(-505.53661,-81.276827)"
         id="path33538" /></clipPath><clipPath
       clipPathUnits="userSpaceOnUse"
       id="clipPath33540"><path
         d="M 46.981,49.175 H 551.994 V 792.152 H 46.981 Z"
         transform="translate(-512.77951,-82.783802)"
         id="path33540" /></clipPath><clipPath
       clipPathUnits="userSpaceOnUse"
       id="clipPath33542"><path
         d="M 46.981,49.175 H 551.994 V 792.152 H 46.981 Z"
         transform="translate(-516.50101,-83.466302)"
         id="path33542" /></clipPath><clipPath
       clipPathUnits="userSpaceOnUse"
       id="clipPath33544"><path
         d="M 46.981,49.175 H 551.994 V 792.152 H 46.981 Z"
         transform="translate(-505.53661,-81.276827)"
         id="path33544" /></clipPath></defs><g
     id="layer1"
     style="display:none;opacity:1"
     transform="translate(-724.8186,-659.07898)"><rect
       style="display:inline;fill:#4a697c;fill-opacity:1;stroke:#ffffff;stroke-width:0.899528;stroke-linecap:round;stroke-linejoin:round;stroke-dasharray:2.69858, 2.69858;stroke-dashoffset:0;stroke-opacity:1"
       id="rect135"
       width="218.36766"
       height="281.89279"
       x="697.52643"
       y="603.26508" /></g><g
     id="layer2"
     style="display:inline"
     transform="translate(-724.8186,-659.07898)"><g
       id="g157"><g
         id="g3"
         transform="translate(4,-2)"
         style="display:inline"><path
           id="path33536"
           d="m 777.25567,672.50394 v 4.50552 l -8.82495,0.0971 v -4.69964 z"
           style="fill:#020202;fill-opacity:1;fill-rule:evenodd;stroke:#000000;stroke-width:0.0937987;stroke-linecap:butt;stroke-linejoin:miter;stroke-miterlimit:3.864;stroke-dasharray:none;stroke-opacity:1" /><path
           id="path33537"
           d="m 0,0 c 0.857,0.192 1.699,0.375 2.526,0.551 l 2.408,-17.143 c -7.355,-0.258 -15.11,-0.354 -15.547,-0.08 -0.368,0.23 -5.569,9.017 -5.569,9.017 l -0.05,3.523 C -10.637,-2.507 -5.071,-1.12 0,0 m 15.711,2.944 c 3.063,0.433 5.017,0.574 5.376,0.409 1.336,-0.096 2.199,-2.558 2.77,-7.322 0.57,-4.766 1.848,-11.583 -0.6,-11.525 -1.719,-0.132 -3.346,-0.255 -4.903,-0.367 z"
           style="fill:#0f5036;fill-opacity:1;fill-rule:nonzero;stroke:none"
           transform="matrix(1.3333333,0,0,-1.3333333,798.35364,666.9333)"
           clip-path="url(#clipPath33538)" /><path
           id="path33539"
           d="M 0,0 2.516,-17.901 C 0.989,-17.975 -0.65,-18.041 -2.309,-18.1 L -4.718,-0.956 C -3.073,-0.606 -1.494,-0.288 0,0 m 8.467,1.437 2.644,-18.805 C 9.434,-17.49 7.842,-17.599 6.304,-17.696 L 3.721,0.682 c 1.775,0.31 3.372,0.561 4.746,0.755"
           style="fill:#ffffff;fill-opacity:1;fill-rule:nonzero;stroke:none"
           transform="matrix(1.3333333,0,0,-1.3333333,808.01084,664.924)"
           clip-path="url(#clipPath33540)" /><path
           id="path33541"
           d="M 0,0 2.583,-18.378 2.218,-18.4 2.028,-18.412 c -0.991,-0.059 -2.082,-0.119 -3.233,-0.172 L -3.721,-0.682 C -2.411,-0.431 -1.167,-0.203 0,0"
           style="fill:#cc1517;fill-opacity:1;fill-rule:nonzero;stroke:none"
           transform="matrix(1.3333333,0,0,-1.3333333,812.97284,664.014)"
           clip-path="url(#clipPath33542)" /><path
           id="path33543"
           d="m 0,0 c 11.416,2.546 20.279,3.723 21.087,3.353 1.336,-0.096 2.199,-2.558 2.77,-7.322 0.57,-4.766 1.848,-11.583 -0.6,-11.525 -3.717,-0.287 -7.005,-0.526 -10.074,-0.717 l -0.19,-0.012 c -8.143,-0.494 -22.994,-0.831 -23.606,-0.449 -0.368,0.23 -5.569,9.017 -5.569,9.017 l -0.05,3.523 C -10.637,-2.507 -5.071,-1.12 0,0 Z"
           style="fill:none;stroke:#13110c;stroke-width:0.109;stroke-linecap:butt;stroke-linejoin:miter;stroke-miterlimit:3.864;stroke-dasharray:none;stroke-opacity:1"
           transform="matrix(1.3333333,0,0,-1.3333333,798.35364,666.9333)"
           clip-path="url(#clipPath33544)" /></g><g
         id="g2"
         transform="matrix(0.98884363,0,0,1,8.0863447,0)"
         style="display:inline"><path
           fill="#21468b"
           d="m 724.81863,659.07895 h 42.04386 v 31.53289 h -42.04386 z"
           id="path1-5"
           style="stroke-width:0.0656934" /><path
           fill="#ffffff"
           d="m 724.81863,659.07895 h 42.04386 v 21.02193 h -42.04386 z"
           id="path2-2"
           style="stroke-width:0.0656934" /><path
           fill="#ae1c28"
           d="m 724.81863,659.07895 h 42.04386 v 10.51096 h -42.04386 z"
           id="path3-2"
           style="stroke-width:0.0656934" /></g></g></g></svg>
