<?xml version="1.0" encoding="UTF-8" standalone="no"?>
<svg
   version="1.1"
   id="svg3686"
   width="29.024891mm"
   height="8.4894524mm"
   xml:space="preserve"
   xmlns="http://www.w3.org/2000/svg"
   xmlns:svg="http://www.w3.org/2000/svg"><defs
     id="defs1064"><clipPath
       clipPathUnits="userSpaceOnUse"
       id="clipPath33544"><path
         d="M 46.981,49.175 H 551.994 V 792.152 H 46.981 Z"
         transform="translate(-505.53661,-81.276827)"
         id="path33544" /></clipPath></defs><g
     id="layer1"
     style="display:inline;opacity:1"
     transform="translate(-724.55914,-769.00647)"><rect
       style="display:inline;fill:#4a697c;fill-opacity:1;stroke:#ffffff;stroke-width:0.899528;stroke-linecap:round;stroke-linejoin:round;stroke-dasharray:2.69858, 2.69858;stroke-dashoffset:0;stroke-opacity:1"
       id="rect135"
       width="218.36766"
       height="281.89279"
       x="697.52643"
       y="603.26508" /></g><g
     id="layer2"
     style="display:inline"
     transform="translate(-724.55914,-769.00647)"><g
       id="g141"><g
         id="g58"
         transform="matrix(0.06496063,0,0,0.06451755,724.55917,770.12419)"
         style="display:inline;opacity:1"><path
           fill="#012169"
           d="M 0,0 H 640 V 480 H 0 Z"
           id="path51" /><path
           fill="#ffffff"
           d="M 75,0 319,181 562,0 h 78 V 62 L 400,241 640,419 v 61 H 560 L 320,301 81,480 H 0 V 420 L 239,242 0,64 V 0 Z"
           id="path52" /><path
           fill="#c8102e"
           d="m 424,281 216,159 v 40 L 369,281 Z m -184,20 6,35 L 54,480 H 0 Z M 640,0 V 3 L 391,191 393,147 590,0 Z M 0,0 239,176 H 179 L 0,42 Z"
           id="path53" /><path
           fill="#ffffff"
           d="M 241,0 V 480 H 401 V 0 Z M 0,160 V 320 H 640 V 160 Z"
           id="path55" /><path
           fill="#c8102e"
           d="m 0,193 v 96 H 640 V 193 Z M 273,0 v 480 h 96 V 0 Z"
           id="path56" /></g><g
         id="g132"
         transform="translate(1.7387333,107.8752)"
         style="display:inline;opacity:1"><path
           id="path131"
           d="m 777.25567,672.50394 v 4.50552 l -8.82495,0.0971 v -4.69964 z"
           style="fill:#000000;fill-opacity:1;fill-rule:evenodd;stroke:#13110c;stroke-width:0.0937987;stroke-linecap:butt;stroke-linejoin:miter;stroke-miterlimit:3.864;stroke-dasharray:none;stroke-opacity:1" /><path
           id="path132"
           d="m 0,0 c 11.416,2.546 20.279,3.723 21.087,3.353 1.336,-0.096 2.199,-2.558 2.77,-7.322 0.57,-4.766 1.848,-11.583 -0.6,-11.525 -3.717,-0.287 -7.005,-0.526 -10.074,-0.717 l -0.19,-0.012 c -8.143,-0.494 -22.994,-0.831 -23.606,-0.449 -0.368,0.23 -5.569,9.017 -5.569,9.017 l -0.05,3.523 C -10.637,-2.507 -5.071,-1.12 0,0 Z"
           style="fill:none;stroke:#ffffff;stroke-width:1.84252;stroke-linecap:butt;stroke-linejoin:miter;stroke-miterlimit:3.864;stroke-dasharray:none;stroke-dashoffset:0;stroke-opacity:1"
           transform="matrix(1.3333333,0,0,-1.3333333,798.35364,666.9333)"
           clip-path="url(#clipPath33544)" /></g></g></g></svg>
